# xmcd CD database file
#
# Track frame offsets:
#	150
#	18005
#	39057
#	56109
#	82605
#	107606
#	131626
#	154517
#	172603
#	187602
#	206312
#	227831
#
# Disc length: 3057 seconds
#
# Revision: 0
# Processed by: cddbd v1.5.2PL0 Copyright (c) Steve Scherf et al.
# Submitted via: CDex 1.51
#
DISCID=740bef0c
DTITLE=The Mistletoe Lounge - The Mistletoe Lounge
DYEAR=2006
DGENRE=New Age
TTITLE0=Walking In the Snow to the Lounge-Winterlude
TTITLE1=Feliz Navidad
TTITLE2=Ye Merry Gents
TTITLE3=Santa Baby
TTITLE4=Winter Wonderland (Vocal Mix)
TTITLE5=Angels We Have Heard
TTITLE6=The First Noel
TTITLE7=O Come O Emmanuel
TTITLE8=Jingle Bells
TTITLE9=Silent Night
TTITLE10=Peace On Earth
TTITLE11=O Come All Ye Faithful
EXTD=YEAR: 2006
EXTT0=
EXTT1=
EXTT2=
EXTT3=
EXTT4=
EXTT5=
EXTT6=
EXTT7=
EXTT8=
EXTT9=
EXTT10=
EXTT11=
PLAYORDER=
